<svg xmlns="http://www.w3.org/2000/svg" id="Layer_1" x="0" y="0" version="1.1" viewBox="0 0 128 128" xml:space="preserve"><path fill="#fff" d="M69.6,21.6c-2.5-4.3-8.7-4.3-11.2,0L4.9,114.3c-2.5,4.3,0.6,9.7,5.6,9.7h107c5,0,8.1-5.4,5.6-9.7L69.6,21.6z"></path><path fill="#71c2ff" d="M64,107c-1.7,0-3-1.3-3-3v-5.6c0-1.7,1.3-3,3-3s3,1.3,3,3v5.6C67,105.7,65.7,107,64,107z"></path><path fill="#71c2ff" d="M64,87c-1.7,0-3-1.3-3-3V48.4c0-1.7,1.3-3,3-3s3,1.3,3,3V84C67,85.7,65.7,87,64,87z"></path><path fill="#444b54" d="M117.5,127h-107c-3.4,0-6.5-1.8-8.2-4.7c-1.7-3-1.7-6.5,0-9.5l53.5-92.7c1.7-3,4.8-4.7,8.2-4.7 s6.5,1.8,8.2,4.7h0l53.5,92.7c1.7,3,1.7,6.5,0,9.5C124,125.2,120.9,127,117.5,127z M64,21.4c-0.6,0-2.1,0.2-3,1.7L7.5,115.8 c-0.9,1.6-0.3,3,0,3.5c0.3,0.5,1.2,1.7,3,1.7h107c1.8,0,2.7-1.2,3-1.7c0.3-0.5,0.9-1.9,0-3.5L67,23.1c0,0,0,0,0,0 C66.1,21.5,64.6,21.4,64,21.4z"></path></svg>